<?xml version="1.0" encoding="UTF-8" standalone="no"?>
<!-- Created with Inkscape (http://www.inkscape.org/) -->

<svg
   height="1000"
   width="1000"
   sodipodi:docname="cybermath.svg"
   version="1.1"
   id="svg943"
   viewBox="0 0 1000 1000"
   inkscape:version="1.1.1 (eb90963e84, 2021-10-02)"
   xmlns:inkscape="http://www.inkscape.org/namespaces/inkscape"
   xmlns:sodipodi="http://sodipodi.sourceforge.net/DTD/sodipodi-0.dtd"
   xmlns="http://www.w3.org/2000/svg"
   xmlns:svg="http://www.w3.org/2000/svg"
   xmlns:rdf="http://www.w3.org/1999/02/22-rdf-syntax-ns#"
   xmlns:cc="http://creativecommons.org/ns#"
   xmlns:dc="http://purl.org/dc/elements/1.1/">
  <sodipodi:namedview
     id="base"
     pagecolor="#ffffff"
     bordercolor="#666666"
     borderopacity="1.0"
     inkscape:pageopacity="0.0"
     inkscape:pageshadow="2"
     inkscape:zoom="0.5"
     inkscape:cx="566"
     inkscape:cy="439"
     inkscape:document-units="px"
     inkscape:current-layer="layer1"
     showgrid="false"
     showguides="true"
     inkscape:window-width="1528"
     inkscape:window-height="836"
     inkscape:window-x="72"
     inkscape:window-y="27"
     inkscape:window-maximized="1"
     showborder="true"
     inkscape:showpageshadow="false"
     inkscape:pagecheckerboard="0">
    <sodipodi:guide
       id="guide_baseline"
       inkscape:label="baseline"
       position="0,253"
       orientation="0,1" />
    <sodipodi:guide
       id="guide_ascender"
       inkscape:label="ascender"
       position="0,945"
       orientation="0,1" />
    <sodipodi:guide
       id="guide_caps"
       inkscape:label="caps"
       position="0,896"
       orientation="0,1" />
    <sodipodi:guide
       id="guide_xheight"
       inkscape:label="xheight"
       position="0,729"
       orientation="0,1" />
    <sodipodi:guide
       id="guide_descender"
       inkscape:label="descender"
       position="0,28"
       orientation="0,1" />
  </sodipodi:namedview>
  <defs
     id="defs4" />
  <metadata
     id="metadata7">
    <rdf:RDF>
      <cc:Work
         rdf:about="">
        <dc:format>image/svg+xml</dc:format>
        <dc:type
           rdf:resource="http://purl.org/dc/dcmitype/StillImage" />
      </cc:Work>
    </rdf:RDF>
  </metadata>
  <g
     id="layer1"
     inkscape:groupmode="layer"
     inkscape:label="Layer 1">
    <rect
       style="fill:none;fill-opacity:0;stroke:none;stroke-width:14.7;stroke-linecap:round;stroke-opacity:1;paint-order:stroke fill markers"
       id="rect1060"
       width="1000"
       height="1000"
       x="0"
       y="2.0000315" />
    <g
       id="g1446"
       transform="matrix(1.2502641,0,0,1.1217204,-47.921389,-394.65691)"
       inkscape:export-filename="/home/math/Projets/cybermath-portfolio-v2/assets/img/cybermath-black.png"
       inkscape:export-xdpi="96"
       inkscape:export-ydpi="96">
      <path
         style="color:#000000;display:inline;fill:#e9231b;stroke-width:3.7033;stroke-linecap:round;-inkscape-stroke:none;paint-order:stroke fill markers"
         d="m 438.00001,442.43253 -6.88395,6.97669 L 46.082845,839.63058 438.00001,1236.829 829.91718,839.63058 Z m 0,27.90678 L 802.38646,839.63576 438.00001,1208.9327 73.613511,839.6358 Z"
         id="rect46009" />
      <path
         style="color:#000000;display:inline;fill:#e9231b;stroke-width:3.7033;stroke-linecap:round;-inkscape-stroke:none;paint-order:stroke fill markers"
         d="m 438.00001,363.171 -6.88399,6.97671 L 46.082819,760.36901 438.00001,1157.5675 829.91718,760.36905 Z m 0,27.89652 L 802.38646,760.36383 438.00001,1129.6608 73.613514,760.36383 Z"
         id="rect46009-3" />
      <path
         style="color:#000000;display:inline;fill:#e9221b;fill-opacity:0.50177;stroke-width:3.7033;stroke-linecap:round;-inkscape-stroke:none;paint-order:stroke fill markers"
         d="m 438.00001,409.77851 -3.43944,3.48575 L 52.966773,799.99978 438.00001,1190.2216 823.03323,799.99978 Z m 0,13.95337 371.2653,376.26786 L 438.00001,1176.2683 66.734655,799.99974 Z"
         id="rect46009-6" />
      <path
         style="color:#000000;display:inline;fill:#f2f2f2;stroke-width:3.70337;stroke-linecap:round;-inkscape-stroke:none"
         d="m 227.80082,728.44837 c -7.15783,0.0956 -16.73977,1.00551 -26.4165,4.27147 -9.67673,3.26574 -19.61333,8.98432 -27.0889,18.74555 -7.47556,9.76237 -12.29622,23.44241 -12.29622,41.79999 0,18.1903 4.83001,31.78499 12.30338,41.50772 7.47337,9.72223 17.39973,15.45074 27.06743,18.76059 19.33541,6.61973 38.28354,3.92001 38.28354,3.92001 l -0.62232,0.0442 H 428.9539 c 6.19378,0 10.59636,-4.09814 12.16033,-7.71658 1.7311,-4.00521 1.57704,-7.36181 1.7311,-6.97766 0,0 0,-21.79793 -3.87606,-4.95409 -2.5858,-0.003 -2.10017,-2.97237 -4.84505,-1.5e-4 0,0 -0.969,9.90834 1.11054,6.33687 4.63782,-7.96532 -2.07954,3.73735 -6.28067,3.73735 H 238.7165 l -0.30758,0.0442 c 0,0 -17.2294,2.25487 -34.07035,-3.51092 -8.42047,-2.8826 -16.58265,-7.67433 -22.67541,-15.60071 -6.09276,-7.92639 -10.30766,-19.1017 -10.30766,-35.59057 0,-16.67267 4.22424,-27.94439 10.31481,-35.89731 6.09057,-7.95322 14.24251,-12.71815 22.65396,-15.5571 16.82289,-5.67738 34.04173,-3.262 34.04173,-3.262 2.55784,0.3772 4.93056,-1.43648 5.30047,-4.05222 0.36854,-2.6177 -1.40943,-5.04488 -3.96999,-5.41943 0,0 -4.73781,-0.72389 -11.89565,-0.62895 z"
         id="path191671"
         sodipodi:nodetypes="csssssccsscccssccsssssccccc" />
      <g
         aria-label="YBERMATH"
         transform="matrix(3.0161074,0,0,4.5472517,50.396095,218.59112)"
         id="text210460"
         style="font-size:26.4583px;font-family:KacstDecorative;-inkscape-font-specification:KacstDecorative;display:inline;fill:#f2f2f2;stroke-width:3.88937">
        <path
           d="m 54.701837,118.11258 h 2.803443 l 5.348504,7.93233 5.309746,-7.93233 h 2.803443 l -6.82128,10.10273 v 9.18548 h -2.622576 v -9.18548 z"
           id="path286139"
           style="fill:#f2f2f2" />
        <path
           d="m 76.12169,128.18948 v 7.06674 h 4.185786 q 2.105812,0 3.113501,-0.86558 1.020608,-0.8785 1.020608,-2.67425 0,-1.80868 -1.020608,-2.66134 -1.007689,-0.86557 -3.113501,-0.86557 z m 0,-7.93233 v 5.81359 h 3.862809 q 1.912025,0 2.8422,-0.71055 0.943094,-0.72347 0.943094,-2.19624 0,-1.45986 -0.943094,-2.18333 -0.930175,-0.72347 -2.8422,-0.72347 z m -2.609656,-2.14457 h 6.666251 q 2.98431,0 4.599197,1.24024 1.614886,1.24023 1.614886,3.52691 0,1.76991 -0.826822,2.81636 -0.826821,1.04645 -2.428789,1.30483 1.924945,0.41341 2.98431,1.73116 1.072285,1.30483 1.072285,3.26853 0,2.58382 -1.756996,3.992 -1.756997,1.40818 -4.999689,1.40818 h -6.924633 z"
           id="path286141"
           style="fill:#f2f2f2" />
        <path
           d="m 91.663357,118.11258 h 12.195623 v 2.19625 h -9.585966 v 5.71024 h 9.185476 v 2.19624 h -9.185476 v 6.98923 h 9.818506 v 2.19625 H 91.663357 Z"
           id="path286143"
           style="fill:#f2f2f2" />
        <path
           d="m 117.52738,128.35742 q 0.83974,0.28422 1.6278,1.2144 0.80099,0.93017 1.60197,2.55798 l 2.64842,5.27099 h -2.80345 l -2.46754,-4.94801 q -0.95602,-1.93787 -1.86035,-2.5709 -0.89142,-0.63304 -2.44171,-0.63304 h -2.8422 v 8.15195 h -2.60966 v -19.28821 h 5.89111 q 3.30728,0 4.93509,1.38235 1.62781,1.38234 1.62781,4.17286 0,1.82159 -0.85266,3.02307 -0.83975,1.20148 -2.45463,1.66656 z m -6.53706,-8.10027 v 6.84712 h 3.28145 q 1.88618,0 2.8422,-0.86558 0.96893,-0.8785 0.96893,-2.5709 0,-1.6924 -0.96893,-2.54506 -0.95602,-0.86558 -2.8422,-0.86558 z"
           id="path286145"
           style="fill:#f2f2f2" />
        <path
           d="m 126.66164,115.4833 4.8995,-0.0711 5.61128,14.96342 5.64074,-14.96342 4.97494,0.0711 v 21.78929 l -3.44325,0.1282 v -19.30813 l -5.67019,15.08125 h -2.98974 l -5.6702,-15.08125 v 19.30813 l -3.35308,0.96127 z"
           id="path286147"
           sodipodi:nodetypes="cccccccccccccc"
           style="fill:#f2f2f2" />
        <path
           d="m 159.23515,120.68348 -3.53983,9.59889 h 7.09258 z m -1.47278,-2.5709 h 2.95847 l 7.35097,19.28821 h -2.71301 l -1.757,-4.94801 h -8.69455 l -1.75699,4.94801 h -2.75177 z"
           id="path286149"
           style="fill:#f2f2f2" />
        <path
           d="m 166.15978,118.11258 h 16.31681 v 2.19625 h -6.84712 v 17.09196 h -2.62257 v -17.09196 h -6.84712 z"
           id="path286151"
           style="fill:#f2f2f2" />
        <path
           d="m 184.99582,118.11258 h 2.60966 v 7.90649 h 9.48261 v -7.90649 h 2.60966 v 19.28821 h -2.60966 v -9.18548 h -9.48261 v 9.18548 h -2.60966 z"
           id="path286153"
           style="fill:#f2f2f2" />
      </g>
      <g
         id="g295990"
         style="display:inline;fill:#f2f2f2"
         transform="matrix(3.6624015,0,0,3.7448082,50.396095,218.59112)">
        <path
           style="color:#000000;fill:#f2f2f2;stroke-linecap:round;-inkscape-stroke:none"
           d="m 162.4082,136.11914 c -2.04284,-0.0253 -3.39453,0.16797 -3.39453,0.16797 l 0.17774,-0.0137 H 55.5625 48.947266 c -0.723369,2.6e-4 -1.309409,0.58717 -1.308594,1.31054 2.57e-4,0.72261 0.585983,1.30834 1.308594,1.3086 H 55.5625 159.2793 l 0.0898,-0.0117 c 0,0 4.95149,-0.64953 9.79102,0.87305 2.41976,0.76128 4.76431,2.04212 6.50586,4.16211 1.74154,2.11998 2.9414,5.10745 2.9414,9.54296 0,4.38606 -1.19722,7.34802 -2.93945,9.46094 -1.74223,2.11292 -4.08958,3.40081 -6.51172,4.17383 -4.84428,1.54605 -9.79883,0.94141 -9.79883,0.94141 l -0.084,-0.0117 h -36.24219 c 6e-5,-0.013 -0.96026,0.006 -1.11279,-0.55864 -0.21007,-0.77731 -0.16174,-1.68708 -0.20952,-1.97378 -0.0956,-0.5734 -1.32346,-0.12645 -1.32346,-0.12645 v 0 c -0.68606,-0.22887 -1.01436,-1.09956 -1.2429,-0.4134 0,0 -0.44805,1.20231 -0.21289,2.61328 0.11758,0.70549 0.44739,1.52997 1.16211,2.14258 0.71471,0.61262 1.72909,0.93555 2.93945,0.93555 h 36.16016 l -0.16602,-0.01 c 0,0 5.40723,0.71632 10.92578,-1.04492 2.75928,-0.88062 5.5925,-2.40199 7.73633,-5.00195 2.14383,-2.59997 3.53906,-6.2526 3.53906,-11.12696 0,-4.9189 -1.39259,-8.59454 -3.53711,-11.20507 -2.14452,-2.61053 -4.98053,-4.1292 -7.74218,-4.99805 -2.76166,-0.86885 -5.49622,-1.11144 -7.53907,-1.13672 z"
           id="path191671-0"
           sodipodi:nodetypes="ccccccccccssssscccsscccsssccssssscc" />
      </g>
      <g
         aria-label="&lt;"
         transform="matrix(2.2296147,0,0,6.1512809,50.396095,218.59112)"
         id="text311818"
         style="font-size:34.9051px;font-family:KacstDecorative;-inkscape-font-specification:KacstDecorative;display:inline;fill:#f2f2f2;stroke-width:0.242397">
        <path
           d="m 55.780672,94.460013 v -2.403134 l 17.077594,-7.226447 v 2.761048 l -13.75411,5.624357 13.75411,5.726618 v 2.744005 z"
           id="path318534"
           style="fill:#f2f2f2" />
      </g>
    </g>
    <text
       xml:space="preserve"
       style="font-size:164.146px;line-height:1.25;font-family:KacstDecorative;-inkscape-font-specification:KacstDecorative;fill:#f2f2f2;stroke-width:1.64146;fill-opacity:1"
       x="-1233.2003"
       y="372.14301"
       id="text4187"
       transform="scale(-0.67562732,1.4801059)"><tspan
         sodipodi:role="line"
         id="tspan4185"
         x="-1233.2003"
         y="372.14301"
         style="fill:#f2f2f2;stroke-width:1.64146;fill-opacity:1">&lt;</tspan></text>
  </g>
</svg>
